<svg width="14" height="15" fill="none" xmlns="http://www.w3.org/2000/svg"><g clip-path="url(#clip0_3000_4)" fill="#437FC8"><path d="M.41 10.856h10.719a.41.41 0 00.263-.095c.103-.086 2.451-2.106 2.594-6.468H2.474c-.143 3.96-2.306 5.82-2.328 5.839a.411.411 0 00.264.724zm13.18-9.024h-2.051v-.41c0-.23-.18-.41-.41-.41-.23 0-.41.18-.41.41v.41H8.64v-.41c0-.23-.18-.41-.41-.41-.23 0-.41.18-.41.41v.41H5.77v-.41c0-.23-.181-.41-.411-.41-.23 0-.41.18-.41.41v.41H2.898c-.23 0-.41.18-.41.41v1.231H14v-1.23c0-.23-.18-.41-.41-.41z"/><path d="M11.919 11.39a1.234 1.234 0 01-.79.287H2.488v1.23c0 .227.183.41.41.41H13.59a.41.41 0 00.41-.41V8.309c-.79 1.94-1.894 2.924-2.081 3.081z"/></g><defs><clipPath id="clip0_3000_4"><path fill="#fff" transform="translate(0 .165)" d="M0 0h14v14H0z"/></clipPath></defs></svg>