<svg width="18" height="19" fill="none" xmlns="http://www.w3.org/2000/svg"><g clip-path="url(#clip0_31_35)"><path d="M17.722 1.887c-.22-.283-.55-.44-.927-.44-.206 0-.424.046-.648.136L.912 7.723C.102 8.048-.007 8.537 0 8.8c.006.262.141.743.966 1.02l.015.005 3.16.955 1.71 5.159c.233.703.756 1.14 1.365 1.14.384 0 .762-.17 1.093-.491l1.954-1.9 2.836 2.41.028.024.007.006c.315.258.66.394.995.394.657 0 1.18-.513 1.332-1.306L17.96 3.202c.1-.522.016-.99-.237-1.316zM5.2 10.6l6.097-3.289-3.796 4.259a.566.566 0 00-.128.248l-.733 3.13L5.2 10.6zm2.395 5.17c-.025.024-.05.046-.076.067l.68-2.904 1.235 1.05-1.839 1.787zm9.33-12.787L14.43 15.995c-.024.124-.101.414-.299.414-.097 0-.22-.056-.345-.158l-3.213-2.73-.001-.002-1.912-1.625 5.49-6.158a.58.58 0 00.038-.716.51.51 0 00-.661-.161l-9.03 4.87-3.204-.968 15.232-6.138a.739.739 0 01.27-.062c.033 0 .09.004.112.031.028.036.063.16.02.39z" fill="#437FC8"/></g><defs><clipPath id="clip0_31_35"><path fill="#fff" d="M0 0h18v19H0z"/></clipPath></defs></svg>