<svg width="19" height="19" fill="none" xmlns="http://www.w3.org/2000/svg"><path d="M18.202 6.706c0-1.785-.7-3.467-1.97-4.737A6.658 6.658 0 0011.496 0H7.522C5.738 0 4.056.7 2.786 1.97a6.659 6.659 0 00-1.97 4.736v3.123c0 1.382.422 2.711 1.22 3.845.703 1 1.65 1.78 2.753 2.275v1.794c0 .928.52 1.257.964 1.257.318 0 .635-.157.945-.466l1.998-1.999h2.8c1.784 0 3.466-.7 4.736-1.97a6.659 6.659 0 001.97-4.736V6.706zm-6.706 8.716h-3.03a.557.557 0 00-.394.163l-2.161 2.162-.009.008v-2.177a.557.557 0 00-.358-.52c-2.162-.825-3.614-2.926-3.614-5.229V6.706c0-1.487.583-2.89 1.643-3.95a5.553 5.553 0 013.95-1.643h3.973a5.55 5.55 0 013.949 1.644 5.552 5.552 0 011.643 3.949v3.123a5.599 5.599 0 01-5.592 5.593z" fill="#437FC8"/><path d="M10.989 9.104a.556.556 0 00-.787 0l-.45.45L8.01 7.812l.45-.45a.557.557 0 000-.787L6.351 4.467a.556.556 0 00-.788 0L4.09 5.942a2.05 2.05 0 000 2.896l4.637 4.637c.386.386.9.598 1.448.598.548 0 1.062-.212 1.447-.598L13.098 12a.557.557 0 000-.788L10.99 9.104zm-.155 3.584a.927.927 0 01-.66.272.927.927 0 01-.66-.272L4.875 8.05a.935.935 0 010-1.32l1.082-1.083 1.32 1.321-.449.45a.557.557 0 000 .787l2.53 2.53c.217.217.57.217.787 0l.45-.45 1.32 1.32-1.082 1.083zM9.644 2.462a.557.557 0 100 1.114c1.273 0 2.471.496 3.372 1.397a4.74 4.74 0 011.397 3.372.557.557 0 001.113 0 5.844 5.844 0 00-1.723-4.16 5.844 5.844 0 00-4.16-1.723z" fill="#437FC8"/><path d="M12.028 8.345a.557.557 0 001.113 0 3.502 3.502 0 00-3.497-3.498.557.557 0 100 1.113 2.387 2.387 0 012.384 2.385z" fill="#437FC8"/></svg>