<svg width="180" height="80" fill="none" xmlns="http://www.w3.org/2000/svg"><path d="M180 0H0v80h180V0z" fill="#fff"/><path d="M34.128 34.334c.264-.46.877-.338 1.284-.15a849.059 849.059 0 018.835 3.74c.75.21.409 1.086.409 1.633-1.62.017-3.243 0-4.865.013-.448-.019-.98.076-1.318-.286-1.333-1.226-2.62-2.504-3.923-3.755-.307-.306-.756-.757-.417-1.196h-.005zm19.306.498c.714-.278 1.396-.66 2.153-.819.474-.097.681.38.912.674-1.002 1.435-2.443 2.504-3.663 3.761-.53.455-.995 1.209-1.804 1.12-1.75 0-3.5-.01-5.253 0-.111-.507-.39-1.308.26-1.581 2.45-1.07 4.928-2.109 7.395-3.151v-.004zm14.497.215c.136-.322.513-.2.787-.234 2.405.015 4.808 0 7.217.01 1.498.023 2.871 1.186 3.063 2.626.293 1.66-1.117 3.38-2.86 3.456-2.053.042-4.11-.028-6.162.026-.4 1.055.063 2.295-.234 3.4-.535.395-1.147.797-1.847.826 0-1.828.02-3.658.01-5.486-.025-.252.037-.676.408-.607 2.483-.032 4.968.014 7.45-.015.61.033 1.266-.412 1.286-1.033.137-.724-.544-1.363-1.274-1.338-2.588-.046-5.175.044-7.749-.038-.199-.504-.136-1.066-.09-1.593h-.005zm22.139 10.1c-.012-3.442-.053-6.887.022-10.328 3.713.013 7.431-.028 11.145.02-.201.641-.454 1.377-1.014 1.79-2.738.097-5.492.016-8.236.036-.015.79-.013 1.597-.01 2.397 2.68-.008 5.362-.008 8.044 0 .038.613.039 1.23.019 1.846-2.689.026-5.374 0-8.062.013v2.372c2.587-.01 5.165 0 7.747 0 .953-.055 1.114 1.1 1.576 1.682a1.507 1.507 0 01-.817.201c-3.472-.014-6.946.019-10.416-.017l.002-.012zm22.184-10.252c.272-.274.534.124.777.23 2.894 2.158 5.804 4.293 8.691 6.457.043-1.923-.054-3.85.043-5.767.433-.543 1.142-.805 1.788-1.045.145.395.116.82.12 1.232-.028 2.952.019 5.908-.022 8.86.105.466-.475.325-.681.11-2.948-2.186-5.885-4.39-8.841-6.566-.037 1.936.065 3.879-.044 5.81-.427.528-1.175.856-1.869.968-.03-3.063 0-6.126-.019-9.19a6.344 6.344 0 01.057-1.102v.003zm22.538 3.879c.536-2.276 2.837-4.012 5.25-3.948 1.906.037 3.806-.07 5.703.053-.019.668-.456 1.248-.873 1.752-1.729.15-3.479-.052-5.21.09-1.419.168-2.684 1.224-2.996 2.581-.507 1.845 1.061 3.872 3.016 3.98 1.471.027 2.943 0 4.415 0v-2.36c-1.099-.016-2.201.026-3.3-.01-.472.05-.63-.482-.849-.782-.136-.326-.496-.66-.314-1.03 1.787-.094 3.582 0 5.373-.044.324.042.746-.102.987.186.051 1.958 0 3.92.018 5.88-1.35.091-2.703.03-4.053.045-1.405-.02-2.895.162-4.193-.488-2.269-.956-3.629-3.584-2.967-5.908l-.007.003zm-96.36 1.952c.349-.372.898-.275 1.362-.293 1.634.025 3.26-.021 4.889.03.015.502.297 1.293-.33 1.548-2.55 1.108-5.113 2.185-7.675 3.27-.668.263-1.318.627-2.042.719-.365-.107-.69-.443-.617-.837.227-.498.67-.856 1.055-1.24 1.132-1.054 2.205-2.17 3.365-3.197h-.007zm7.304-.264c1.698-.032 3.404 0 5.097-.021.354.026.78-.046 1.054.227 1.246 1.126 2.435 2.31 3.651 3.466.313.327.681.63.851 1.054.098.572-.626 1.018-1.137.712-3.074-1.226-6.104-2.56-9.143-3.86-.699-.232-.444-1.048-.373-1.575" fill="#485B60"/></svg>