<svg width="180" height="80" fill="none" xmlns="http://www.w3.org/2000/svg"><path d="M180 0H0v80h180V0z" fill="#fff"/><path fill-rule="evenodd" clip-rule="evenodd" d="M61.003 32.013l-19.874 7.92a.196.196 0 00-.095.083.205.205 0 00-.034.114.202.202 0 00.129.19l5.9 2.132a.19.19 0 00.1.012.214.214 0 00.092-.038l11.194-8.172a.023.023 0 01.009-.002l.009.002a.034.034 0 01.016.01.021.021 0 01.002.008c0 .003 0 .006-.002.009a.024.024 0 010 .018l-9.908 8.635a.213.213 0 00-.054.072.204.204 0 00-.017.088v4.598a.188.188 0 00.036.116.198.198 0 00.322.01l2.86-3.531a.206.206 0 01.102-.067.201.201 0 01.125 0l3.645 1.323a.2.2 0 00.15 0 .214.214 0 00.106-.108l5.452-13.157a.197.197 0 00.01-.115.192.192 0 00-.054-.103.198.198 0 00-.217-.047" fill="#485B60"/><path d="M67.285 33.608h-1.797l.026 10.964h1.797l-.026-10.964zm5.655 3.075c-.908 0-1.739.327-2.26.982v-.818h-1.694l.02 7.723H70.7l-.013-5.113a2.02 2.02 0 011.89-1.224c1.077 0 1.695.767 1.698 1.988l.01 4.35h1.693l-.011-4.62c0-1.996-1.18-3.261-3.027-3.256m10.035.119l-2.345 5.413-2.354-5.4h-1.878l3.498 7.715h1.495l3.474-7.733-1.89.005zm6.093-.169c-.987.017-1.932.4-2.653 1.076a3.99 3.99 0 001.997 6.833c.97.18 1.973-.009 2.813-.528a3.995 3.995 0 001.487-5.14 3.983 3.983 0 00-3.644-2.24zm.015 6.457c-1.369 0-2.327-1.06-2.329-2.434-.002-1.375.944-2.443 2.317-2.455 1.374-.011 2.313 1.062 2.316 2.437.004 1.374-.948 2.441-2.3 2.444l-.004.008zm6.927-6.326h-1.694l.02 7.724h1.693l-.02-7.724zm0-2.978h-1.694v1.568h1.693v-1.568zm5.399 4.392a2.298 2.298 0 012.111 1.354l1.47-.806a3.99 3.99 0 00-3.593-2.127c-2.303.003-4.05 1.743-4.05 4.032 0 2.29 1.772 4.01 4.083 4.007a3.983 3.983 0 003.582-2.142l-1.48-.805a2.295 2.295 0 01-2.105 1.365c-1.369 0-2.342-1.06-2.346-2.435-.003-1.374.966-2.443 2.336-2.454m8.489-1.587c-2.34 0-4.021 1.757-4.008 4.028 0 2.342 1.689 4.012 4.025 4.008 1.608 0 2.817-.704 3.504-1.8l-1.287-.923c-.398.679-1.125 1.176-2.198 1.18-1.277 0-2.296-.83-2.376-2.097l6.043-.014c.014-.246.014-.387.014-.557 0-2.484-1.703-3.824-3.718-3.82l.001-.005zm-2.27 3.158c.229-1.146 1.225-1.72 2.213-1.72s1.878.597 2.066 1.708l-4.279.012zm27.354-3.219h-.06a3.965 3.965 0 00-2.839 1.164 3.989 3.989 0 00-1.164 2.843v.022a3.996 3.996 0 001.172 2.847 3.968 3.968 0 002.849 1.157h.029a3.949 3.949 0 002.847-1.156 3.977 3.977 0 001.169-2.843v-.027a3.966 3.966 0 00-1.166-2.837 3.966 3.966 0 00-2.835-1.163l-.002-.007zm-.019 6.464c-1.37 0-2.326-1.06-2.329-2.434-.003-1.373.949-2.444 2.316-2.454 1.367-.01 2.312 1.062 2.316 2.436.003 1.375-.949 2.442-2.303 2.445v.007zm-6.976-6.292v.71c-.54-.555-1.342-.86-2.265-.86-2.231 0-3.844 1.722-3.861 3.889a3.805 3.805 0 003.873 3.883c.926 0 1.724-.327 2.262-.902v.915c0 1.203-.654 1.846-1.539 2.042-2.205.396-3.575-.27-3.575-.27l-.54 1.388c.787.49 3.228.631 4.362.38 1.633-.287 2.992-1.357 2.987-3.525l-.015-7.652-1.689.002zm.012 4.974a2.336 2.336 0 01-2.061 1.085c-1.338 0-2.311-.998-2.327-2.325a2.227 2.227 0 01.163-.902 2.266 2.266 0 012.159-1.436 2.358 2.358 0 012.064 1.06l.002 2.518zm-11.235 1.318l2.31-3.142c.465-.61 1.208-1.637 1.347-1.86.643-1.066.722-2.185.163-3.303-.455-.91-1.261-1.353-2.252-1.473-1.39-.176-2.835.468-3.488 1.787-.152.287-.252.6-.294.922l1.481.327c.023-.064.044-.116.059-.164a1.857 1.857 0 011.038-1.229c.541-.247 1.317-.15 1.735.211.7.61.691 1.637.183 2.291-.085.111-4.469 5.708-4.469 5.708a.266.266 0 00-.062.175v1.239l6.505-.017v-1.472h-4.256z" fill="#485B60"/></svg>