<svg width="180" height="80" fill="none" xmlns="http://www.w3.org/2000/svg"><path d="M180 0H0v80h180V0z" fill="#fff"/><path d="M50.817 34.502c-.055-.074-.118-.112-.189-.112a.276.276 0 00-.144.048c-.533.418-1.262 2.19-1.859 4.525l.529.006c1.044.011 2.122.024 3.188.04a48.144 48.144 0 00-.79-2.726c-.356-1.081-.596-1.566-.735-1.781z" fill="#485B60"/><path d="M52.003 30c-5.524 0-10.002 4.477-10.002 10s4.478 10 10.002 10c5.525 0 10.003-4.477 10.003-10s-4.479-10-10.003-10zm7.19 10.181l-.002.003a.48.48 0 01-.033.024l-.011.008-.023.014-.022.013a.53.53 0 01-.246.06h-4.738c.038.157.08.336.124.53.26 1.121.95 4.1 1.682 4.1h.038c.572 0 .864-.827 1.505-2.64l.008-.021c.102-.292.218-.62.344-.968l.032-.088a.23.23 0 01.435.146l-.027.089c-.067.216-.138.51-.22.85-.381 1.58-.958 3.97-2.437 3.97h-.01c-.956-.008-1.527-1.535-1.773-2.188-.456-1.22-.803-2.519-1.135-3.777H48.32l-.905 2.895-.014-.01a.46.46 0 01-.849-.245v-.016l.055-.328c.125-.744.275-1.517.446-2.298h-1.84l-.007-.007a.698.698 0 01-.431-1.131.69.69 0 01.408-.238 1.72 1.72 0 01.215-.01h.09c.583.01 1.205.02 1.882.029.961-3.906 2.075-5.888 3.31-5.894 1.326 0 2.309 3.017 3.096 5.969l.003.011c1.617.033 3.34.08 5.016.201l.07.007a.57.57 0 01.08.007h.01l.008.002h.005a.53.53 0 01.229.93l-.004.002zm8.363 2.321l-.793 1.959H64.46l4.383-10.23h2.035l4.368 10.23h-2.29l-.793-1.959h-4.607zm2.29-5.683l-1.496 3.724h3.022l-1.526-3.724zm18.384 3.709v3.933h-2.079v-3.753c0-1.137-.553-1.75-1.526-1.75-.434 0-.913.194-1.347.793.036.257.056.517.06.777v3.933H81.26v-3.753c0-1.137-.554-1.75-1.541-1.75-.402 0-.853.24-1.272.808v4.695h-2.08v-7.163h2.08v.433c.449-.419.928-.658 1.765-.658.913 0 1.72.36 2.29 1.017.763-.703 1.481-1.017 2.603-1.017 1.75 0 3.126 1.361 3.126 3.455zm9.14.359c0 2.078-1.585 3.723-3.56 3.723-.808 0-1.48-.209-2.034-.568v3.874h-2.08V37.297h2.08v.42c.554-.36 1.227-.57 2.034-.57 1.975.001 3.56 1.631 3.56 3.74zm-2.048 0c0-1.062-.778-1.99-1.855-1.99-.614 0-1.227.21-1.69.838v2.29c.463.612 1.076.822 1.69.822 1.078-.002 1.854-.913 1.854-1.96h.001zm5.294 3.574h-2.079V33.843h2.079v10.618zm1.871-9.691c0-.703.553-1.226 1.256-1.226.688 0 1.242.522 1.242 1.226 0 .688-.554 1.197-1.242 1.197-.703 0-1.256-.509-1.256-1.197zm2.303 2.528v7.163h-2.079v-7.163h2.079zm7.554 7.059c-.867.269-1.256.329-1.928.329-1.735 0-2.872-1.227-2.872-3.081v-2.558h-1.51v-1.75h1.511V34.74h2.064v2.558h2.588v1.75h-2.588v2.542c0 .808.494 1.181 1.256 1.181.389 0 .808-.09 1.212-.194l.267 1.78zm8.348.104h-2.079v-.508c-.584.463-1.242.732-2.049.732-1.885 0-3.142-1.36-3.142-3.44v-3.947h2.08v3.753c0 1.137.568 1.75 1.541 1.75.522 0 1.091-.314 1.57-.897v-4.606h2.08l-.001 7.163zm8.826 0h-2.079v-.419c-.554.36-1.227.568-2.035.568-1.974 0-3.575-1.63-3.575-3.739 0-2.078 1.601-3.724 3.575-3.724.808 0 1.481.21 2.035.569v-3.873h2.079v10.618zm-2.079-2.437v-2.29c-.464-.613-1.077-.822-1.691-.822-1.092 0-1.855.913-1.855 1.96 0 1.06.763 1.988 1.855 1.988.612.001 1.227-.208 1.691-.836zm10.516-.614h-5.28c.164.838.718 1.496 1.855 1.496.583 0 .987-.18 1.211-.538h2.17c-.389 1.375-1.736 2.317-3.426 2.317-2.304 0-3.86-1.66-3.86-3.798 0-2.214 1.541-3.816 3.8-3.816 2.049 0 3.575 1.451 3.575 3.665a4.23 4.23 0 01-.045.674zm-5.266-1.226h3.247c-.121-.897-.659-1.39-1.496-1.39-1.003 0-1.556.582-1.751 1.39z" fill="#485B60"/></svg>