<svg width="180" height="80" fill="none" xmlns="http://www.w3.org/2000/svg"><path d="M180 0H0v80h180V0z" fill="#fff"/><path d="M71.67 35.333l-4.303-2.942a2.229 2.229 0 00-1.256-.384c-.45 0-.889.134-1.255.384l-1.401.957-1.523 1.038-1.38.947c-.28.193-.51.447-.667.741-.158.294-.241.62-.242.952v5.962a.478.478 0 01-.206.396l-1.493.988 1.43.975 1.009-.668c.28-.192.51-.446.668-.74.158-.294.24-.62.241-.951v-5.962a.506.506 0 01.216-.405l4.303-2.94a.53.53 0 01.6 0l1.123.766 1.429.975 1.752 1.198a.478.478 0 01.217.405v5.963a.478.478 0 01-.217.403l-4.304 2.93a.548.548 0 01-.637-.023l-.82-.494-1.441.999 1.343.812c.366.25.805.385 1.255.385.45 0 .889-.135 1.255-.385l4.303-2.94c.28-.192.51-.445.667-.739.159-.293.242-.618.243-.948v-5.962c0-.331-.083-.658-.241-.952a2.107 2.107 0 00-.669-.74z" fill="#485B60"/><path d="M64.645 45.618l1.381-.945a2.11 2.11 0 00.667-.738c.158-.293.241-.618.243-.948v-5.962a.479.479 0 01.207-.398l1.49-.987-1.43-.976-1.007.667a2.11 2.11 0 00-.668.74 2.03 2.03 0 00-.24.953v5.963a.5.5 0 01-.217.404l-4.303 2.929a.53.53 0 01-.6 0l-1.123-.767-1.427-.971-1.752-1.198a.5.5 0 01-.158-.173.478.478 0 01-.059-.224v-5.962a.478.478 0 01.216-.405l4.303-2.94a.553.553 0 01.643.023l.795.482 1.46-.987-1.338-.81a2.228 2.228 0 00-1.255-.385c-.45 0-.889.135-1.255.385l-4.309 2.944c-.28.193-.51.446-.668.74a2.03 2.03 0 00-.241.953v5.962c0 .33.083.657.241.952.158.294.387.548.669.74l4.302 2.941a2.234 2.234 0 002.511 0l1.47-1.005 1.45-.988.002-.01zM82.51 33.88h-3.207v1.824a.774.774 0 01-.233.55.84.84 0 01-.567.24l-.855.02v2.434h1.655v4.368c0 2.76 1.138 3.654 5.898 3.357v-2.506c-2.421.238-2.608-.398-2.608-1.172v-4.05h2.608v-2.483h-2.69V33.88zm12.91-1.659c-1.158 0-1.794.247-1.794 1.56 0 1.312.633 1.559 1.793 1.559 1.141 0 1.737-.28 1.737-1.56 0-1.317-.596-1.559-1.737-1.559zm1.616 4.241h-3.249V46.59h3.25V36.462zm8.359-.179c-1.635 0-2.669.535-3.166 1.152v-4.886h-3.207V46.59c.036 0 .071 0 .107-.007h.144c.36 0 .71-.1 1.013-.285.303-.186.544-.45.694-.763v-.008a.346.346 0 01.116-.133.372.372 0 01.491.065c.615.715 1.472 1.142 2.689 1.258.253.034.508.051.763.052 1.841 0 3.011-.747 3.712-1.827.039-.058.077-.123.113-.178l.072-.13c.053-.097.102-.194.148-.296l.033-.074a6.3 6.3 0 00.146-.37c0-.014.009-.027.013-.04.045-.133.086-.268.121-.405 0-.017.009-.032.013-.048a6.39 6.39 0 00.076-.35l.028-.14c.009-.047.01-.074.017-.111a8.25 8.25 0 00.106-1.294c0-2.602-.972-5.223-4.242-5.223zm-1.096 7.923c-1.801 0-2.09-1.091-2.09-2.7 0-1.55.227-2.681 2.07-2.681 1.758 0 2.047 1.11 2.047 2.681 0 1.588-.289 2.7-2.027 2.7zm11.463-7.923c-3.849 0-4.76 1.489-4.76 3.654h3.145c0-.815.372-1.41 1.697-1.41 1.407 0 1.863.617 1.863 1.787l-2.774.277c-2.958.3-4.345 1.111-4.345 3.06 0 2.124 1.904 3.118 4.387 3.118 1.606 0 2.67-.448 3.398-1.295a.37.37 0 01.609.068c.15.313.391.578.694.763.302.186.654.285 1.013.285h.245v-5.74c-.002-2.622-.67-4.567-5.172-4.567zm-.129 8.3c-1.179 0-1.672-.436-1.672-1.052 0-.477.394-.834 1.672-.953l2.07-.239c-.019 1.252-.62 2.245-2.07 2.245zM126 32.55h-3.227v14.04H126V32.55zm-33.317 3.717c-.104 0-.2.007-.3.01a3.813 3.813 0 00-2.316.618 3.357 3.357 0 00-.778.663.362.362 0 01-.325.127.37.37 0 01-.168-.063.35.35 0 01-.116-.133 1.831 1.831 0 00-.698-.763 1.941 1.941 0 00-1.016-.282h-.246v.024h-.01V46.59h3.228v-5.185c0-1.35.373-2.64 2.794-2.402v-2.701h-.043c-.002-.023-.003-.036-.006-.036z" fill="#485B60"/></svg>