<svg width="180" height="80" fill="none" xmlns="http://www.w3.org/2000/svg"><path d="M180 0H0v80h180V0z" fill="#fff"/><path d="M42.762 45.815L38 34.185h2.44l3.485 8.676 3.506-8.676h2.439l-4.786 11.63h-2.322zm9.208-6.837h7.153a3.746 3.746 0 00-1.314-1.99 3.515 3.515 0 00-2.24-.779 3.58 3.58 0 00-2.31.768 3.731 3.731 0 00-1.29 2zm-.717 5.28a5.788 5.788 0 01-1.328-1.938 5.7 5.7 0 01-.44-2.295 5.817 5.817 0 01.434-2.301c.3-.731.745-1.396 1.31-1.956a5.717 5.717 0 011.947-1.33 5.809 5.809 0 012.33-.438 6.171 6.171 0 014.217 1.593 5.666 5.666 0 011.395 1.9 5.59 5.59 0 01.492 2.293c.002.35-.021.698-.069 1.044H51.97c.035.41.153.81.346 1.175.193.365.458.69.779.954.67.556 1.525.85 2.401.825a3.734 3.734 0 001.55-.276c.49-.2.93-.503 1.29-.886l2.773.023a6.127 6.127 0 01-2.275 2.432 6.107 6.107 0 01-3.269.92 5.957 5.957 0 01-2.34-.43 5.871 5.871 0 01-1.972-1.308zm11.931 1.557v-6.063c0-1.86.458-3.26 1.373-4.2a4.77 4.77 0 011.653-1.082 4.841 4.841 0 011.96-.325h.236v2.213h-.237c-1.77 0-2.654 1.131-2.652 3.394v6.063h-2.333zm12.159-9.605a3.714 3.714 0 00-1.49.261 3.68 3.68 0 00-1.255.833 3.869 3.869 0 00-1.098 2.694 3.87 3.87 0 001.098 2.695c.35.359.771.643 1.238.833a3.7 3.7 0 001.476.271 3.627 3.627 0 002.686-1.091 3.921 3.921 0 001.077-2.694c0-1-.385-1.962-1.077-2.695a3.579 3.579 0 00-1.225-.827 3.634 3.634 0 00-1.461-.267l.03-.014zm-4.35-.465a6.212 6.212 0 017.733-.758 6.023 6.023 0 012.461 3.251 5.91 5.91 0 01-.198 4.047 6.053 6.053 0 01-2.77 3.004 6.224 6.224 0 01-4.081.597 6.146 6.146 0 01-3.54-2.08 5.945 5.945 0 01-1.393-3.814c-.013-.79.14-1.575.447-2.305a5.79 5.79 0 011.34-1.942zm22.46 10.07H90.8l-3.057-4.163-3.056 4.163h-2.676l4.405-6.046-4.052-5.584h2.631l2.724 3.722 2.772-3.722h2.632l-4.052 5.584 4.38 6.046zm2.693-.037v-3.89h-2.124V40.54h2.124v-.415l.048-1.418c.128-1.412.579-2.521 1.352-3.327a4.77 4.77 0 013.087-1.395v1.422a3.525 3.525 0 00-2.024 1.047 3.608 3.608 0 00-.912 2.257l-.048 1.418v.414h3.736v1.347h-3.723v3.89l-1.516-.003zm9.16-11.589h-1.516v11.63h1.516v-11.63zm11.914 2.566a4.37 4.37 0 00-1.487-1 4.443 4.443 0 00-1.772-.327 4.534 4.534 0 00-1.78.33 4.462 4.462 0 00-1.499.997 4.617 4.617 0 00-1.343 3.25c0 1.214.481 2.38 1.343 3.25a4.44 4.44 0 001.491 1.008 4.515 4.515 0 001.778.34 4.486 4.486 0 001.766-.329 4.39 4.39 0 001.483-.995 4.697 4.697 0 001.319-3.257 4.697 4.697 0 00-1.319-3.257l.02-.01zm-7.605-1.01a6.21 6.21 0 017.732-.758 6.02 6.02 0 012.462 3.251 5.908 5.908 0 01-.198 4.047 6.054 6.054 0 01-2.769 3.004 6.225 6.225 0 01-4.082.597 6.148 6.148 0 01-3.541-2.08 5.95 5.95 0 01-1.392-3.814c-.012-.79.14-1.575.447-2.305a5.789 5.789 0 011.341-1.942zm22.313 1.01a4.384 4.384 0 00-1.488-1 4.443 4.443 0 00-1.772-.327 4.537 4.537 0 00-1.78.33 4.462 4.462 0 00-1.499.997 4.617 4.617 0 00-1.343 3.25c0 1.214.481 2.38 1.343 3.25.421.433.929.777 1.491 1.009a4.506 4.506 0 001.778.338 4.44 4.44 0 001.764-.327 4.383 4.383 0 001.482-.996 4.692 4.692 0 001.32-3.257 4.692 4.692 0 00-1.32-3.257l.024-.01zm-7.603-1.01a6.214 6.214 0 017.733-.758 6.025 6.025 0 012.462 3.251 5.914 5.914 0 01-.199 4.047 6.05 6.05 0 01-2.769 3.004 6.222 6.222 0 01-4.081.597 6.145 6.145 0 01-3.541-2.08 5.94 5.94 0 01-1.392-3.814 5.704 5.704 0 01.446-2.305 5.802 5.802 0 011.341-1.942zm12.224 10.07v-6.029c0-1.875.438-3.286 1.314-4.233.45-.475.999-.847 1.611-1.092a4.623 4.623 0 011.929-.326c.115-.002.23.005.343.02v1.421a1.881 1.881 0 00-.343-.023 3.052 3.052 0 00-1.348.254 2.998 2.998 0 00-1.091.817c-.599.711-.899 1.766-.899 3.162v6.029h-1.516zm3.9-1.293h.258a.413.413 0 00.25-.054.162.162 0 00.05-.063.153.153 0 00.015-.079.168.168 0 00-.031-.1.196.196 0 00-.089-.068.745.745 0 00-.213-.02h-.24v.384zm-.212.724v-1.284h.452a1.15 1.15 0 01.344.034.341.341 0 01.226.313.33.33 0 01-.103.246.417.417 0 01-.274.115c.042.016.08.04.113.07.073.078.137.162.192.253l.161.253h-.257l-.117-.203a.98.98 0 00-.223-.3.26.26 0 00-.168-.043h-.134v.546h-.212zm.535-1.657a1.044 1.044 0 00-.498.13.92.92 0 00-.38.368.975.975 0 00-.004.994.933.933 0 00.377.367 1.01 1.01 0 001.009 0 .933.933 0 00.377-.367.994.994 0 00-.003-.994.946.946 0 00-.381-.367 1.04 1.04 0 00-.477-.131h-.02zm0-.196c.209.001.414.053.597.152.191.101.35.254.456.441.104.183.16.39.161.6.001.208-.055.412-.161.592a1.113 1.113 0 01-.449.445 1.256 1.256 0 01-1.208 0 1.14 1.14 0 01-.439-.448 1.172 1.172 0 010-1.192 1.14 1.14 0 01.456-.442c.186-.099.395-.15.607-.148h-.02z" fill="#485B60"/></svg>