<svg width="56" height="56" fill="none" xmlns="http://www.w3.org/2000/svg"><path d="M28 0l2.431 14.213 7.146-12.524L35 15.876 45.998 6.55 38.725 19l13.524-5-11.093 9.212 14.419-.074L42 28l13.575 4.862-14.42-.074L52.25 42l-13.524-5.001 7.273 12.45L35 40.124l2.577 14.187-7.146-12.524L28 56l-2.431-14.213-7.146 12.524L21 40.124 10.002 49.45 17.275 37 3.751 42l11.093-9.212-14.419.074L14 28 .425 23.138l14.42.074L3.75 14l13.524 5.001-7.273-12.45L21 15.876 18.423 1.689l7.146 12.524L28 0z" fill="#ECE8D9"/><path d="M34.928 32a7.999 7.999 0 01-13.856 0l2.771-1.6a4.8 4.8 0 008.314 0l2.771 1.6z" fill="#102226"/></svg>