<svg width="129" height="150" fill="none" xmlns="http://www.w3.org/2000/svg"><path d="M139-166l4.219 66.486 10.31-65.62-1.917 66.622 16.288-64.035-8.034 66.03 22.087-61.75-14.061 64.714 27.644-58.787-19.935 62.688 32.899-55.18-25.591 59.976 37.792-50.969-30.966 56.607 42.275-46.199-36.003 52.618 46.29-40.924-40.644 48.052 49.8-35.199-44.84 42.96L259.377-87l-48.545 37.396 55.151-22.66-51.718 31.423 56.932-15.984-54.325 25.107 58.09-9.132-56.335 18.514 58.612-2.18-57.729 11.72L278-8l-58.49 4.796 57.729 11.72-58.612-2.18 56.335 18.514-58.09-9.132 54.325 25.107-56.932-15.984 51.718 31.423-55.151-22.66L259.377 71l-52.764-29.09 44.84 42.96-49.8-35.2 40.644 48.053-46.29-40.924 36.003 52.618-42.275-46.2 30.966 56.608-37.792-50.97 25.591 59.977-32.899-55.18 19.935 62.688-27.644-58.787 14.061 64.714-22.087-61.75 8.034 66.03-16.288-64.035 1.917 66.622-10.31-65.62L139 150l-4.219-66.486-10.31 65.62 1.917-66.622-16.288 64.035 8.034-66.03-22.087 61.75 14.061-64.714-27.644 58.787 19.935-62.688-32.899 55.18 25.591-59.976-37.793 50.969 30.966-56.607-42.273 46.199 36.002-52.618-46.29 40.924L76.346 49.67l-49.8 35.2 44.84-42.96L18.622 71l48.545-37.396-55.15 22.66 51.718-31.423L6.803 40.825l54.324-25.107-58.09 9.132L59.373 6.336.76 8.516l57.73-11.72L0-8l58.49-4.796L.761-24.516l58.611 2.18L3.038-40.85l58.09 9.132L6.803-56.825 63.735-40.84 12.017-72.264l55.15 22.66L18.622-87l52.764 29.09-44.84-42.96 49.8 35.199-40.643-48.052 46.29 40.924-36.002-52.618 42.273 46.2-30.966-56.608 37.793 50.97L69.5-144.833l32.899 55.18-19.935-62.688 27.644 58.787-14.061-64.714 22.087 61.75-8.034-66.03 16.288 64.035-1.917-66.622 10.31 65.62L139-166z" fill="#ECE8D9"/></svg>