<svg width="32" height="32" fill="none" xmlns="http://www.w3.org/2000/svg"><path d="M17.3 28.25h-2.6a.625.625 0 000 1.25h2.6a.625.625 0 000-1.25z" fill="#9F9B8D"/><path d="M28.5 5h-3.75V3.643A1.878 1.878 0 0026 1.875 1.877 1.877 0 0024.125 0H7.875A1.877 1.877 0 006 1.875c0 .815.523 1.51 1.25 1.768V5H3.5a.625.625 0 00-.625.625V10c0 2.757 2.243 5 5 5h.528a8.792 8.792 0 003.86 3.578 1.87 1.87 0 001.403 2.037c-.75 2.502-2.085 5.135-3.666 5.135H8.5a.625.625 0 00-.62.547l-.625 5a.625.625 0 00.62.703h16.25a.625.625 0 00.62-.703l-.625-5a.625.625 0 00-.62-.547H22c-.957 0-1.765-1.005-2.275-1.848-.655-1.083-1.112-2.359-1.391-3.287a1.878 1.878 0 001.403-2.037A8.792 8.792 0 0023.597 15h.528c2.757 0 5-2.243 5-5V5.625A.625.625 0 0028.5 5zM4.125 10V6.25H7.25v4.422c0 1.061.192 2.1.562 3.076A3.754 3.754 0 014.125 10zm19.292 20.75H8.583L9.052 27h13.896l.469 3.75zm-3.88-5h-7.073a7.65 7.65 0 00.878-1.196c.799-1.32 1.323-2.874 1.61-3.882h2.096c.287 1.01.81 2.56 1.607 3.877.283.467.576.867.881 1.201zm-1.662-6.328h-3.75a.626.626 0 010-1.25h3.75a.626.626 0 010 1.25zm1.31-1.966a1.873 1.873 0 00-1.31-.534h-3.75c-.509 0-.971.204-1.31.534A7.477 7.477 0 018.5 10.672V3.75h4.687a.625.625 0 000-1.25H7.875a.626.626 0 010-1.25h16.25a.626.626 0 010 1.25h-5.313a.625.625 0 000 1.25H23.5v6.922a7.478 7.478 0 01-4.316 6.784zM27.874 10a3.754 3.754 0 01-3.687 3.748c.37-.976.562-2.015.562-3.076V6.25h3.125V10z" fill="#9F9B8D"/><path d="M19.193 8.15l-1.402-.248-.696-1.281a1.243 1.243 0 00-.509-.504 1.24 1.24 0 00-.95-.093 1.24 1.24 0 00-.738.607l-.669 1.256-1.406.261a1.23 1.23 0 00-.666.333 1.24 1.24 0 00-.383.875c-.007.334.117.65.349.89l.989 1.026-.182 1.383c-.048.264-.012.53.106.773a1.241 1.241 0 001.124.703c.187 0 .373-.043.546-.127l1.28-.622 1.316.627c.22.105.465.142.709.108a1.24 1.24 0 00.824-.483 1.24 1.24 0 00.241-.925l-.197-1.41.967-1.02a1.25 1.25 0 00-.653-2.129zm-.243 1.257l-1.185 1.25a.625.625 0 00-.166.516l.24 1.707-1.588-.756a.625.625 0 00-.542.002l-1.55.755a.672.672 0 00.008-.045l.223-1.7a.625.625 0 00-.17-.515l-1.198-1.239a.62.62 0 00.02-.003l1.711-.318a.625.625 0 00.438-.32l.807-1.52.839 1.542c.09.167.253.284.44.317l1.7.3a.566.566 0 00-.027.027zM16 3.75a.625.625 0 000-1.25.625.625 0 100 1.25z" fill="#9F9B8D"/></svg>