<svg width="129" height="40" fill="none" xmlns="http://www.w3.org/2000/svg"><path d="M40 0H0v40h40V0z" fill="#ECE8D9"/><path d="M20 6l.85 9.174 3.938-8.33-2.338 8.913 6.549-6.482-5.245 7.575 8.37-3.85-7.52 5.324 9.183-.755L24.9 20l8.887 2.431-9.182-.755L32.124 27l-8.371-3.85 5.245 7.575-6.549-6.482 2.338 8.913-3.937-8.33L20 34l-.85-9.174-3.938 8.33 2.338-8.912-6.549 6.48 5.245-7.574L7.876 27l7.52-5.324-9.183.755L15.1 20l-8.887-2.431 9.183.755L7.876 13l8.37 3.85-5.245-7.575 6.549 6.482-2.338-8.913 3.937 8.33L20 6z" fill="#1C3F3A"/><path d="M58.469 22.844l3.386-11.907h1.641l-.95 4.63L58.903 28h-1.629l1.196-5.156zm-3.504-11.907L57.66 22.61l.81 5.39h-1.617l-4.137-17.063h2.25zm12.914 11.66l2.637-11.66h2.261L68.652 28h-1.617l.844-5.402zm-4.137-11.66l3.293 11.907L68.231 28H66.6l-3.515-12.434-.961-4.629h1.617zm14.57 4.383V28h-2.18V15.32h2.18zm-2.343-3.363c0-.352.105-.648.316-.89.219-.243.54-.364.961-.364.414 0 .73.121.95.363.226.243.34.54.34.891 0 .336-.114.625-.34.867-.22.235-.536.352-.95.352-.422 0-.742-.117-.96-.352a1.276 1.276 0 01-.317-.867zM85.149 10v18h-2.18V10h2.18zm6.835 0v18h-2.18V10h2.18zm3.907 11.8v-.269c0-.914.132-1.761.398-2.543a6.041 6.041 0 011.148-2.05 5.125 5.125 0 011.817-1.36c.71-.328 1.508-.492 2.391-.492.89 0 1.691.164 2.402.492.719.32 1.328.774 1.828 1.36a5.924 5.924 0 011.16 2.05 7.85 7.85 0 01.399 2.543v.27c0 .914-.133 1.762-.399 2.543a6.07 6.07 0 01-1.16 2.05 5.312 5.312 0 01-1.816 1.36c-.704.32-1.5.48-2.391.48s-1.691-.16-2.402-.48a5.435 5.435 0 01-1.829-1.36 6.194 6.194 0 01-1.148-2.05 7.85 7.85 0 01-.398-2.543zm2.168-.269v.27c0 .633.074 1.23.222 1.793.149.554.371 1.047.668 1.476.305.43.684.77 1.137 1.02.453.242.98.363 1.582.363.594 0 1.113-.121 1.559-.363.453-.25.828-.59 1.125-1.02a4.76 4.76 0 00.668-1.476c.156-.563.234-1.16.234-1.793v-.27c0-.625-.078-1.215-.234-1.77a4.563 4.563 0 00-.68-1.488 3.232 3.232 0 00-1.125-1.03c-.445-.25-.969-.376-1.57-.376-.594 0-1.118.125-1.571.375-.445.25-.82.594-1.125 1.031-.297.43-.52.926-.668 1.489a6.822 6.822 0 00-.222 1.77zm16.304 4.219l3.258-10.43h1.43l-.281 2.075L115.453 28h-1.394l.304-2.25zm-2.191-10.43l2.777 10.547.199 2.133h-1.464l-3.68-12.68h2.168zm9.996 10.465l2.648-10.465h2.157L123.293 28h-1.453l.328-2.215zm-2.801-10.465l3.188 10.254.363 2.426h-1.383l-3.41-10.629-.281-2.05h1.523z" fill="#333"/></svg>