<svg width="126" height="126" fill="none" xmlns="http://www.w3.org/2000/svg"><path d="M63 0l5.47 31.979 16.077-28.18L78.75 35.72l24.746-20.98L87.13 42.751 117.56 31.5 92.6 52.226l32.443-.166L94.5 63l30.543 10.94-32.443-.166L117.56 94.5 87.13 83.248l16.366 28.013L78.75 90.28l5.797 31.921-16.077-28.18L63 126l-5.47-31.979-16.077 28.18L47.25 90.28l-24.746 20.98L38.87 83.248 8.44 94.5 33.4 73.774.957 73.94 31.5 63 .957 52.06l32.443.166L8.44 31.5l30.43 11.252L22.504 14.74 47.25 35.72 41.453 3.8 57.53 31.978 63 0z" fill="#ECE8D9"/></svg>