<?xml version="1.0" encoding="utf-8"?><svg viewBox="0 0 502.66 502.66" xmlns="http://www.w3.org/2000/svg" xmlns:xlink="http://www.w3.org/1999/xlink"><style>:root>svg{display:none}:root>svg:target{display:block}</style><svg viewBox="0 0 20 20" id="CheckCircleBlue" xmlns="http://www.w3.org/2000/svg"><path d="M13.438 8.125L8.854 12.5l-2.291-2.188"/><path d="M10 17.5a7.5 7.5 0 100-15 7.5 7.5 0 000 15z"/></svg><svg viewBox="0 0 20 20" id="CheckCircleGray" xmlns="http://www.w3.org/2000/svg"><path d="M13.438 8.125L8.854 12.5l-2.291-2.188"/><path d="M10 17.5a7.5 7.5 0 100-15 7.5 7.5 0 000 15z"/></svg><svg viewBox="0 0 48 48" id="btnBlueLeft" xmlns="http://www.w3.org/2000/svg"><path d="M30 9L15 24l15 15"/></svg><svg viewBox="0 0 48 48" id="btnBlueRight" xmlns="http://www.w3.org/2000/svg"><path d="M18 9l15 15-15 15"/></svg><svg viewBox="0 0 502.664 502.664" id="icon" xmlns="http://www.w3.org/2000/svg"><path d="M153.821 358.226L0 274.337v-46.463l153.821-83.414v54.574L46.636 250.523l107.185 53.431v54.272zm26.273 29.358L282.103 115.08h32.227L212.084 387.584h-31.99zm168.749-29.358v-54.272l107.164-52.999-107.164-52.59v-53.927l153.821 83.522v46.183l-153.821 84.083z"/></svg><svg viewBox="0 0 32 32" id="listArrow" xmlns="http://www.w3.org/2000/svg"><path d="M12 6l10 10-10 10"/></svg><svg viewBox="0 0 44 44" id="useful-information-1" xmlns="http://www.w3.org/2000/svg"><path d="M22 38.5c9.113 0 16.5-7.387 16.5-16.5S31.113 5.5 22 5.5 5.5 12.887 5.5 22 12.887 38.5 22 38.5z"/><path d="M22 32.313a1.375 1.375 0 100-2.75 1.375 1.375 0 000 2.75zM22 24.75v-1.374a4.813 4.813 0 10-4.813-4.813"/></svg><svg viewBox="0 0 44 44" id="useful-information-2" xmlns="http://www.w3.org/2000/svg"><path d="M22 38.5c9.113 0 16.5-7.387 16.5-16.5S31.113 5.5 22 5.5 5.5 12.887 5.5 22 12.887 38.5 22 38.5zm0-33v33m0-30.249l16.303 16.303M22 17.876l13.546 13.546M22 27.501l8.59 8.59"/></svg><svg viewBox="0 0 44 44" id="useful-information-3" xmlns="http://www.w3.org/2000/svg"><path d="M1.375 16.5L22 5.5l20.625 11L22 27.5l-20.625-11z"/><path d="M32.313 41.25V22L22 16.5"/><path d="M37.813 19.067v9.37c0 .297-.096.586-.274.823-1.158 1.54-6.042 7.177-15.539 7.177S7.619 30.802 6.46 29.26a1.368 1.368 0 01-.272-.823v-9.37"/></svg></svg>