<svg width="120" height="37" fill="none" xmlns="http://www.w3.org/2000/svg"><path d="M.768 9.186V36.63h79.115l40.073-8.104V.898H41.013L.768 9.186z" fill="#FFDD2D"/><path d="M11.762 13.284h3.12v5.2h5.52v-5.2h3.12v12.98h-3.12v-5.56h-5.52v5.56h-3.12v-12.98zm20.61 13.18c-.72 0-1.386-.047-2-.14-.6-.094-1.226-.254-1.88-.48-.706-.24-1.26-.627-1.66-1.16-.4-.547-.6-1.207-.6-1.98v-5.68c0-.64.14-1.214.42-1.72a3.47 3.47 0 011.12-1.2c.4-.254.894-.467 1.48-.64a8.061 8.061 0 011.64-.32c.467-.04.96-.06 1.48-.06.614 0 1.147.026 1.6.08.454.04.96.133 1.52.28.64.186 1.167.413 1.58.68.414.266.76.64 1.04 1.12.294.493.44 1.086.44 1.78v5.68c0 .72-.193 1.34-.58 1.86-.373.52-.893.913-1.56 1.18-1.2.48-2.546.72-4.04.72zm.04-2.22c.44 0 .807-.014 1.1-.04.307-.04.62-.107.94-.2.32-.094.56-.247.72-.46.174-.227.26-.507.26-.84v-5.7c0-.614-.246-1.047-.74-1.3-.493-.267-1.26-.4-2.3-.4-1.04 0-1.806.126-2.3.38-.493.253-.74.693-.74 1.32v5.7c0 .333.087.613.26.84.174.213.427.366.76.46.32.093.627.16.92.2.307.026.68.04 1.12.04zm8.851-10.96h4.44l3.2 9.28 3.16-9.28h4.18v12.98h-2.82v-9.6h-.06l-3.28 9.6h-2.5l-3.38-9.6h-.08v9.6h-2.86v-12.98zm17.974 0h9.9v2.22h-6.78v2.98h6.12v2.22h-6.12v3.34h6.98v2.22h-10.1v-12.98zm12.407 0h3.16l6.28 8.86v-8.86h2.78v12.98h-3.16l-6.28-9v9h-2.78v-12.98zm15.22 0h9.9v2.22h-6.78v2.98h6.12v2.22h-6.12v3.34h6.98v2.22h-10.1v-12.98zm15.406 2.22h-4v-2.22h11.1v2.22h-3.98v10.76h-3.12v-10.76z" fill="#000"/></svg>