<svg width="33" height="33" fill="none" xmlns="http://www.w3.org/2000/svg"><path d="M24.496 9.174h-7c-.115.028-.35.11-.368.217a3.651 3.651 0 000 .523v14.8c.011.12.044.392.093.523.048.13.267.199.37.216h6.905a1.2 1.2 0 00.707-.216c.188-.139.293-.327.293-.523v-14.8c0-.196-.105-.385-.293-.523a1.2 1.2 0 00-.707-.217z" fill="#2562FF" stroke="#2562FF" stroke-width="2" stroke-linecap="round" stroke-linejoin="round"/><path d="M13.41 22.564l5.25-5.25-5.25-5.25m-8.75 5.25h14" stroke="#fff" stroke-width="2" stroke-linecap="round" stroke-linejoin="round"/><path d="M12.246 22.564l5.25-5.25-5.25-5.25m-8.75 5.25h14" stroke="#2562FF" stroke-width="2" stroke-linecap="round" stroke-linejoin="round"/></svg>