<svg width="26" height="26" fill="none" xmlns="http://www.w3.org/2000/svg"><g clip-path="url(#clip0_34_30)"><path d="M18.755 1.594c-2.663 0-4.64 1.636-5.86 3.956-1.22-2.32-3.195-3.956-5.859-3.956-3.838 0-6.64 3.224-6.64 7.154 0 5.198 4.96 8.462 12.017 14.638a.732.732 0 00.965 0c7.051-6.17 12.017-9.439 12.017-14.638 0-3.931-2.802-7.154-6.64-7.154zm-5.86 20.269C6.396 16.217 1.86 13.08 1.86 8.748c0-3.243 2.225-5.689 5.176-5.689 2.844 0 4.607 2.634 5.154 4.59.197.713 1.212.716 1.412 0 .539-1.93 2.28-4.59 5.153-4.59 2.95 0 5.176 2.446 5.176 5.69 0 4.333-4.543 7.474-11.036 13.114z" fill="#404040"/></g><defs><clipPath id="clip0_34_30"><path fill="#fff" transform="translate(.396 .08)" d="M0 0h25v25H0z"/></clipPath></defs></svg>