<svg width="329" height="492" fill="none" xmlns="http://www.w3.org/2000/svg"><path d="M279 0l5.549 152.648 23.615-151.3-12.579 152.323L337.008 5.376l-30.569 150.329L365.216 12.04l-48.221 146.69L392.48 21.267 327.132 162.71 418.5 32.958 336.742 167.6l106.25-120.62-97.271 126.371L465.687 63.186 353.968 179.9l132.37-98.506-124.945 105.777 143.323-85.766-136.8 93.682L520.621 123l-147.157 80.561 160.416-57.618L377.978 212.5l166.367-42.518-162.938 51.824 170.496-26.952-168.188 36.522 172.756-11.09-171.597 20.822L558 246l-173.126 4.892 171.597 20.822-172.756-11.09 168.188 36.522-170.496-26.952 162.938 51.824L377.978 279.5l155.902 66.557-160.416-57.618L520.621 369l-152.705-72.087 136.8 93.682-143.323-85.766 124.945 105.777-132.37-98.506 111.719 116.714-119.966-110.166 97.271 126.37-106.25-120.619L418.5 459.042l-91.368-129.751 65.348 141.442-75.485-137.462 48.221 146.689-58.777-143.665 30.569 150.329-41.423-148.295 12.579 152.323-23.615-151.3L279 492l-5.549-152.648-23.615 151.3 12.579-152.323-41.423 148.295 30.569-150.329-58.777 143.665 48.221-146.689-75.485 137.462 65.348-141.442L139.5 459.042l81.758-134.643-106.25 120.619 97.271-126.37L92.313 428.814 204.032 312.1l-132.37 98.506 124.945-105.777-143.323 85.766 136.8-93.682L37.379 369l147.157-80.561-160.415 57.618L180.022 279.5 13.655 322.018l162.938-51.824L6.097 297.146l168.188-36.522-172.757 11.09 171.598-20.822L0 246l173.126-4.892L1.528 220.286l172.757 11.09L6.097 194.854l170.496 26.952-162.938-51.824L180.022 212.5 24.121 145.943l160.415 57.618L37.379 123l152.705 72.087-136.8-93.682 143.323 85.766L71.663 81.394 204.032 179.9 92.312 63.186 212.28 173.352l-97.271-126.37L221.258 167.6 139.5 32.958l91.368 129.751L165.52 21.267l75.485 137.462L192.784 12.04l58.777 143.665L220.992 5.376l41.423 148.295L249.836 1.348l23.615 151.3L279 0z" fill="#ECE8D9"/></svg>