<svg width="99" height="89" fill="none" xmlns="http://www.w3.org/2000/svg"><path d="M128.5-168l6.45 56.83 16.495-54.765-3.801 57.068 26.008-50.939-13.93 55.472 34.686-45.477-23.611 52.094 42.248-38.553-32.533 47.041 48.453-30.389-40.409 40.475 53.101-21.249-46.988 32.61 56.042-11.427-52.055 23.696 57.181-1.236-55.449 14.02 56.483 8.994-57.062 3.894 53.969 18.935-56.84-6.357 49.721 28.267L191.868-5.4l43.875 36.69-50.982-25.924 36.618 43.935-45.534-34.61 28.185 49.768-38.622-42.185 18.846 54.001-30.469-48.404 8.901 56.498-21.337-53.065-1.33 57.179L128.5 32.46l-11.519 56.023-1.33-57.18L94.314 84.37l8.901-56.498-30.47 48.404 18.847-54.001L52.97 64.459l28.185-49.768-45.534 34.61L72.239 5.366 21.257 31.29 65.132-5.4 10.341 11.004l49.721-28.267-56.84 6.357 53.97-18.935L.128-33.735l56.483-8.993L1.163-56.75l57.181 1.236L6.29-79.209l56.042 11.427-46.988-32.61 53.101 21.25-40.41-40.476 48.454 30.39-32.533-47.042 42.248 38.553-23.61-52.094 34.685 45.477-13.93-55.472 26.008 50.939-3.801-57.068 16.495 54.765L128.5-168z" fill="#CBC7B5"/></svg>