<svg width="32" height="32" fill="none" xmlns="http://www.w3.org/2000/svg"><path d="M26.867 16c0-5.992-4.875-10.867-10.867-10.867-5.992 0-10.867 4.875-10.867 10.867 0 2.821 1.081 5.395 2.85 7.329l-2.31 2.31a.534.534 0 00.754.755l2.314-2.314a10.823 10.823 0 007.26 2.787c5.991 0 10.866-4.875 10.866-10.867zm-5.623-.533h-4.71V6.7c1.484 1.172 4.494 4.107 4.71 8.766zm-5.777-9.252v9.252h-4.71c.153-3.221 1.664-5.61 2.943-7.073a.533.533 0 00-.803-.702c-1.4 1.6-3.055 4.224-3.208 7.775H6.215c.268-4.98 4.272-8.984 9.252-9.252zM6.215 16.533h3.474c.192 4.53 2.803 7.574 4.528 9.104-4.356-.804-7.755-4.52-8.002-9.104zm4.54 0h4.712v8.761c-2.64-2.095-4.546-5.165-4.711-8.76zm5.778 9.252v-9.252h4.71c-.158 3.333-1.765 5.783-3.125 7.277a.533.533 0 10.789.718c1.487-1.634 3.246-4.322 3.404-7.995H24a.533.533 0 000-1.066h-1.689c-.192-4.528-2.801-7.573-4.526-9.104C22.339 7.205 25.8 11.206 25.8 16c0 5.225-4.11 9.507-9.267 9.785zm11.463 1.523l-2.585-2.585a.533.533 0 10-.755.754l2.6 2.6C26.192 29.778 27.422 32 29.433 32A2.57 2.57 0 0032 29.433c0-2.06-2.313-3.272-4.004-2.125zm1.437 3.625a1.501 1.501 0 010-3 1.501 1.501 0 010 3zM3.923 4.744l2.6 2.6a.533.533 0 10.754-.754L4.692 4.004C5.839 2.314 4.626 0 2.567 0A2.57 2.57 0 000 2.567c0 2.014 2.225 3.24 3.923 2.177zM2.567 1.067c.827 0 1.5.673 1.5 1.5s-.673 1.5-1.5 1.5-1.5-.673-1.5-1.5.673-1.5 1.5-1.5zm0 25.8A2.57 2.57 0 000 29.433 2.57 2.57 0 002.567 32a2.57 2.57 0 002.566-2.567 2.57 2.57 0 00-2.566-2.566zm0 4.066a1.501 1.501 0 010-3 1.501 1.501 0 010 3zM25.41 7.277l2.586-2.585C29.686 5.839 32 4.626 32 2.567A2.57 2.57 0 0029.433 0c-2.014 0-3.24 2.225-2.177 3.923l-2.6 2.6a.533.533 0 10.755.754zm4.023-6.21a1.501 1.501 0 010 3c-.827 0-1.5-.673-1.5-1.5s.673-1.5 1.5-1.5z" fill="#9F9B8D"/></svg>