<svg width="32" height="32" fill="none" xmlns="http://www.w3.org/2000/svg"><g clip-path="url(#clip0_2_2135)"><path d="M27.924 15.3v14.03a2.669 2.669 0 01-2.665 2.665h-12.53a2.669 2.669 0 01-2.666-2.666V2.671A2.669 2.669 0 0112.73.005h12.53a2.669 2.669 0 012.665 2.666v1.133a.533.533 0 01-1.066 0V2.671c0-.882-.718-1.6-1.6-1.6H15.103l.511.922a.8.8 0 00.7.411h5.362a.533.533 0 110 1.067h-5.362a1.867 1.867 0 01-1.632-.96l-.8-1.44H12.73c-.882 0-1.6.718-1.6 1.6V29.33c0 .882.718 1.6 1.6 1.6h12.53c.881 0 1.599-.718 1.599-1.6V15.3a.533.533 0 011.066 0zM8.531.538a.533.533 0 00-.534-.533H2.666A2.669 2.669 0 000 2.671V29.33a2.669 2.669 0 002.666 2.666h5.331a.533.533 0 000-1.067H2.666c-.882 0-1.6-.717-1.6-1.599V2.671c0-.882.718-1.6 1.6-1.6h5.331a.533.533 0 00.534-.533zM4.865 8.136a.867.867 0 01-1.733 0 .867.867 0 011.733 0zm0-3.999a.867.867 0 01-1.733 0 .867.867 0 011.733 0zm1.8 1.133a.867.867 0 010 1.733.867.867 0 010-1.733zm21.456 6.31c.63.63.178 1.707-.707 1.707-.884 0-1.337-1.076-.707-1.706a.999.999 0 011.414 0zm-3.157-1.743a.533.533 0 00.754.754 2.398 2.398 0 013.392 0 .534.534 0 00.754-.754 3.464 3.464 0 00-4.9 0zm6.88-1.98a6.261 6.261 0 00-8.86 0 .533.533 0 10.754.755 5.204 5.204 0 017.352 0 .533.533 0 00.754-.754z" fill="#9F9B8D"/></g><defs><clipPath id="clip0_2_2135"><path fill="#fff" d="M0 0h32v32H0z"/></clipPath></defs></svg>