<svg width="32" height="32" fill="none" xmlns="http://www.w3.org/2000/svg"><path d="M27.662 12.267c0 4.83-2.804 9.073-6.979 11.07a.53.53 0 01-.23.053c-.563 0-.741-.77-.23-1.015 3.87-1.852 6.372-5.82 6.372-10.108a.533.533 0 011.067 0zm-9 12.93a.533.533 0 00-.534.533v4.137c0 .588-.478 1.066-1.067 1.066h-3.333a1.068 1.068 0 01-1.066-1.066V26.5h3.4a.533.533 0 000-1.067h-3.413a3.731 3.731 0 00-2.087-3.06c-3.868-1.853-6.367-5.82-6.367-10.106 0-6.185 5.003-11.2 11.2-11.2 2.046 0 4.045.55 5.78 1.593a.533.533 0 10.55-.914A12.29 12.29 0 0015.395 0C8.622 0 3.128 5.48 3.128 12.267c0 4.828 2.801 9.07 6.973 11.068a2.662 2.662 0 011.494 2.394v4.138c0 1.176.957 2.133 2.133 2.133h3.333a2.136 2.136 0 002.134-2.133V25.73a.533.533 0 00-.534-.534zm6.33-15.065a1 1 0 11-1.413 1.415 1 1 0 011.412-1.415zm1.744-.99a.533.533 0 000-.754 3.465 3.465 0 00-4.903 0 .534.534 0 00.754.754 2.399 2.399 0 013.395 0 .533.533 0 00.754 0zm1.98-2.734a6.263 6.263 0 00-8.863 0 .533.533 0 10.755.754 5.197 5.197 0 017.353 0 .533.533 0 00.755-.754zm-8.721 8.125c0 1.103-.897 2-2 2h-.934v6.134a.533.533 0 01-1.066 0v-6.134h-1.2v6.8a.533.533 0 11-1.067 0v-6.8h-.933c-1.103 0-2-.897-2-2 0-1.102.897-2 2-2s2 .898 2 2v.934h1.2v-.934c0-1.102.897-2 2-2s2 .898 2 2zm-7.2.934h.933v-.934a.934.934 0 00-1.867 0c0 .515.42.934.934.934zm6.133-.934a.934.934 0 00-1.867 0v.934h.934a.934.934 0 00.933-.934z" fill="#9F9B8D"/></svg>