<svg width="32" height="32" fill="none" xmlns="http://www.w3.org/2000/svg"><path d="M30.977 22.059l-2.241 3.882a.535.535 0 01-.664.229l-3.3-1.332a.535.535 0 11.402-.992l2.867 1.157 1.777-3.076-2.434-1.903a.535.535 0 01-.182-.579c.674-2.194.7-4.612 0-6.89a.535.535 0 01.182-.579l2.434-1.902-1.777-3.077-2.867 1.158a.535.535 0 01-.593-.132 11.66 11.66 0 00-5.963-3.446.535.535 0 01-.41-.447l-.432-3.06h-3.552l-.431 3.06a.535.535 0 01-.411.446 11.66 11.66 0 00-5.963 3.447.535.535 0 01-.593.131L3.958 6.997l-1.776 3.076 2.434 1.903a.535.535 0 01.182.579 11.778 11.778 0 000 6.89.535.535 0 01-.182.579l-2.434 1.902 1.776 3.077 2.868-1.158a.535.535 0 01.593.132 11.66 11.66 0 005.963 3.446c.216.05.38.228.41.447l.432 3.06h3.552l.431-3.06a.535.535 0 01.411-.447 11.62 11.62 0 003.543-1.455.535.535 0 01.564.91 12.694 12.694 0 01-3.509 1.501l-.445 3.16a.535.535 0 01-.53.46H13.76a.535.535 0 01-.53-.46l-.445-3.16a12.717 12.717 0 01-5.893-3.406L3.928 26.17a.535.535 0 01-.664-.228L1.023 22.06a.535.535 0 01.134-.69l2.514-1.965a12.858 12.858 0 010-6.808L1.157 10.63a.535.535 0 01-.134-.69l2.241-3.88a.535.535 0 01.664-.229l2.963 1.196a12.717 12.717 0 015.893-3.405l.445-3.16a.535.535 0 01.53-.461h4.482c.267 0 .493.196.53.46l.445 3.16a12.717 12.717 0 015.893 3.407l2.963-1.197c.247-.1.53-.002.664.229l2.241 3.882a.535.535 0 01-.134.69l-2.514 1.965c.611 2.22.612 4.588 0 6.808l2.514 1.966c.21.164.267.458.134.689zm-15.854-3.514l2.676-4.548a.535.535 0 00-.922-.542L14.2 18.003a.535.535 0 00.922.542zm-2.089-4.596a.535.535 0 00-.757 0l-1.672 1.673a.535.535 0 000 .756l1.672 1.673a.535.535 0 00.757-.756L11.74 16l1.294-1.294a.535.535 0 000-.757zm6.243 4.259a.533.533 0 00.379-.157l1.673-1.673a.535.535 0 000-.756l-1.673-1.673a.535.535 0 00-.757.756L20.193 16 18.9 17.294a.536.536 0 00.378.914zM12.87 24.54a9.084 9.084 0 003.136.561c6.61 0 11.04-6.902 8.248-12.926-2.11-4.55-7.527-6.537-12.078-4.428-5.785 2.681-7.097 10.39-2.47 14.822a.535.535 0 10.74-.773c-4.08-3.907-2.927-10.71 2.18-13.078 4.015-1.86 8.796-.108 10.657 3.907 1.86 4.015.108 8.796-3.907 10.657a7.974 7.974 0 01-6.138.253.535.535 0 00-.368 1.005z" fill="#CBC7B5"/></svg>