<svg width="28" height="28" fill="none" xmlns="http://www.w3.org/2000/svg"><path d="M8.406 18.436h15.428a3.183 3.183 0 003.176-3.177V8.7c0-.011 0-.023-.006-.034 0-.012-.005-.03-.005-.04 0-.012-.006-.024-.006-.035-.006-.012-.006-.023-.012-.04-.005-.012-.005-.024-.011-.035-.006-.012-.006-.023-.012-.035-.005-.011-.011-.023-.017-.04-.006-.011-.011-.023-.017-.029l-.017-.034c-.006-.012-.012-.017-.018-.029-.005-.011-.017-.023-.023-.034-.005-.012-.011-.018-.023-.03-.005-.01-.017-.016-.023-.028-.005-.011-.017-.017-.023-.029-.006-.011-.017-.017-.023-.023l-.029-.029c-.011-.005-.017-.017-.028-.023-.012-.005-.023-.017-.035-.023-.011-.005-.017-.011-.029-.017-.011-.006-.023-.011-.034-.023a55.467 55.467 0 00-.035-.017l-.034-.017-.035-.018c-.011-.005-.023-.005-.034-.011a.107.107 0 00-.04-.012c-.012 0-.023-.005-.03-.005-.017-.006-.028-.006-.045-.006-.006 0-.012-.006-.023-.006l-19.554-2.7V2.57c0-.028 0-.057-.006-.08 0-.006 0-.012-.006-.023 0-.017-.006-.035-.006-.052-.005-.017-.005-.029-.011-.046 0-.011-.006-.017-.006-.029l-.017-.051c0-.006-.006-.018-.006-.023a.172.172 0 00-.023-.047c-.006-.005-.006-.017-.011-.023a.12.12 0 00-.023-.034c-.006-.012-.012-.017-.018-.029-.005-.011-.011-.017-.017-.029-.006-.011-.017-.023-.023-.034l-.017-.017-.035-.035-.017-.017c-.012-.012-.023-.023-.04-.035-.006-.005-.018-.011-.023-.017-.012-.012-.023-.017-.035-.029-.017-.011-.034-.023-.046-.029-.006-.005-.011-.005-.017-.011-.023-.012-.052-.023-.075-.035L2.07.062a.776.776 0 00-1.02.414.776.776 0 00.415 1.018l3.763 1.589v17.022a3.18 3.18 0 002.768 3.148 3.138 3.138 0 00-.449 1.61A3.14 3.14 0 0010.684 28a3.144 3.144 0 003.137-3.136c0-.576-.156-1.122-.432-1.583h6.986a3.093 3.093 0 00-.431 1.583A3.14 3.14 0 0023.08 28a3.144 3.144 0 003.136-3.136 3.144 3.144 0 00-3.136-3.137H8.406c-.898 0-1.623-.73-1.623-1.622v-2.107c.472.277 1.03.438 1.623.438zm3.867 6.422c0 .875-.714 1.582-1.583 1.582a1.589 1.589 0 01-1.582-1.582c0-.869.713-1.582 1.582-1.582.87 0 1.583.707 1.583 1.582zm12.395 0c0 .875-.713 1.582-1.582 1.582a1.59 1.59 0 01-1.583-1.582c0-.869.714-1.582 1.583-1.582s1.582.707 1.582 1.582zm-.834-7.976H8.406c-.898 0-1.623-.73-1.623-1.623V6.863l18.673 2.573v5.818c0 .903-.73 1.628-1.622 1.628z" fill="#1A467C"/></svg>