<svg width="21" height="21" fill="none" xmlns="http://www.w3.org/2000/svg"><g clip-path="url(#clip0_18_460)" fill="#6E6E6E"><path d="M20.835 12.408c0-1.788-1.252-3.349-3.116-4.194.11.39.174.793.185 1.206.186.111.366.23.534.36.94.726 1.459 1.658 1.459 2.628 0 .97-.517 1.903-1.459 2.627-1.031.795-2.418 1.234-3.904 1.234a6.86 6.86 0 01-2.792-.573 10.58 10.58 0 01-1.61.19c1.138.854 2.69 1.381 4.402 1.381a7.77 7.77 0 003.032-.598l2.294 1.17-.463-2.34c.898-.84 1.439-1.917 1.439-3.09z"/><path d="M17.251 8.767a5.013 5.013 0 00-.184-1.205c-.8-2.85-4.088-4.984-8.022-4.984-4.534 0-8.21 2.835-8.21 6.332 0 1.53.704 2.932 1.875 4.027l-.604 3.049 2.989-1.525a10.132 10.132 0 004.385.772 10.428 10.428 0 001.61-.19c3.544-.7 6.164-3.18 6.164-6.133l-.003-.143zm-3.119 3.567c-1.245.959-2.887 1.52-4.662 1.598a9.42 9.42 0 01-1.24-.025c-1.626-.136-3.12-.682-4.273-1.572-1.224-.944-1.899-2.16-1.899-3.424 0-1.263.675-2.479 1.9-3.424C5.3 4.451 7.107 3.881 9.043 3.881c1.937 0 3.745.57 5.087 1.606.608.47 1.08 1.004 1.402 1.58a3.9 3.9 0 01.426 1.134c.048.234.072.471.072.71 0 1.263-.674 2.479-1.899 3.423z"/><path d="M11.957 9.827a.898.898 0 100-1.797.898.898 0 000 1.797zm-2.912 0a.898.898 0 100-1.797.898.898 0 000 1.797zm-2.912.001a.899.899 0 100-1.798.899.899 0 000 1.798z"/></g><defs><clipPath id="clip0_18_460"><path fill="#fff" transform="translate(.835 .208)" d="M0 0h20v20H0z"/></clipPath></defs></svg>