<svg width="46" height="46" fill="none" xmlns="http://www.w3.org/2000/svg"><path d="M39.93 14.55a3.183 3.183 0 00-3.513-3.515A3.19 3.19 0 0032.9 7.518a3.187 3.187 0 00-5.424-2.601l-2.405 2.405c-.358-.477-.75-.928-1.17-1.35l-2.813-2.813a5.675 5.675 0 00-8.026 0 .702.702 0 000 .995l1.02 1.019a10.544 10.544 0 012.71 10.208 11.93 11.93 0 00-.42 3.138v4.534l-1.406 1.406-.206-.206a.703.703 0 00-.995 0l-2.315 2.315-.206-.206a.703.703 0 00-.994 0L1.812 34.8l.995.994 7.94-7.94 11.662 11.662-3.019 3.018.995.995 3.515-3.516a.702.702 0 000-.994l-.909-.91 2.316-2.315a.702.702 0 000-.994l-1.613-1.612 1.407-1.407h5.333a.704.704 0 00.498-.206l7.03-7.03-.027-.028a3.19 3.19 0 00.38-.324l4.218-4.22a3.188 3.188 0 00-2.602-5.422zm-3.167-2.129a1.782 1.782 0 011.26 3.043l-4.219 4.219a1.783 1.783 0 01-2.52-2.522l4.218-4.218a1.778 1.778 0 011.26-.522zm-2.255-2.994a1.785 1.785 0 010 2.521l-4.22 4.219a1.783 1.783 0 11-2.52-2.521l4.218-4.219a1.785 1.785 0 012.521 0zM28.47 5.911a1.783 1.783 0 012.52 2.522l-4.218 4.218a1.783 1.783 0 11-2.521-2.52l4.219-4.22zm-6.474 31.204l-9.553-9.552 1.818-1.819 9.553 9.553-1.818 1.818zm8.146-6.74H24.81a.702.702 0 00-.497.206L22.7 32.193l-6.74-6.74 1.612-1.612a.702.702 0 00.206-.497v-4.825c0-.935.125-1.866.37-2.768a11.955 11.955 0 00-3.072-11.573l-.481-.48a4.276 4.276 0 015.498.456l2.813 2.812c.422.422.81.877 1.16 1.361l-.808.809a3.187 3.187 0 002.6 5.423 3.172 3.172 0 00.357 1.854v.553a11.226 11.226 0 01-3.309 7.99l.994.994a12.612 12.612 0 003.697-8.193 3.174 3.174 0 001.779.32 3.183 3.183 0 003.515 3.513 3.183 3.183 0 002.56 3.477l-5.308 5.308zM41.54 18.98l-4.219 4.218a1.783 1.783 0 11-2.521-2.521l4.218-4.219a1.782 1.782 0 112.522 2.522zm.144 16.317a3.52 3.52 0 01-3.515-3.516.703.703 0 00-1.406 0 3.52 3.52 0 01-3.516 3.516.703.703 0 000 1.406 3.52 3.52 0 013.516 3.516.703.703 0 001.406 0 3.52 3.52 0 013.515-3.516.703.703 0 000-1.406zm-4.218 2.389A4.96 4.96 0 0035.78 36a4.96 4.96 0 001.686-1.686A4.96 4.96 0 0039.151 36a4.96 4.96 0 00-1.685 1.686zM43.09 5.063a2.816 2.816 0 01-2.812-2.813.703.703 0 10-1.406 0 2.816 2.816 0 01-2.813 2.813.703.703 0 000 1.406 2.816 2.816 0 012.813 2.812.703.703 0 001.406 0 2.816 2.816 0 012.813-2.812.703.703 0 100-1.407zm-3.515 1.889a4.253 4.253 0 00-1.186-1.186c.47-.313.873-.716 1.186-1.186.313.47.716.873 1.186 1.186-.47.312-.873.715-1.186 1.186z" fill="#404040"/><path d="M5.825 19.125a.703.703 0 001.406 0 3.52 3.52 0 013.516-3.516.703.703 0 000-1.406 3.52 3.52 0 01-3.516-3.515.703.703 0 00-1.406 0 3.52 3.52 0 01-3.516 3.515.703.703 0 000 1.406 3.52 3.52 0 013.516 3.516zm.703-5.905c.417.691.995 1.27 1.686 1.686a4.96 4.96 0 00-1.686 1.686 4.96 4.96 0 00-1.686-1.686 4.962 4.962 0 001.686-1.686z" fill="#404040"/></svg>