<svg width="21" height="26" fill="none" xmlns="http://www.w3.org/2000/svg"><g clip-path="url(#clip0_57_1030)"><path d="M14.907 2.839c-1.669-.011-3.255.893-4.33 2.467C9.51 3.721 7.92 2.814 6.249 2.84c-3.131 0-5.67 3.132-5.67 6.997 0 6.623 9.367 13.089 9.747 13.339a.386.386 0 00.506 0c.38-.25 9.747-6.623 9.747-13.339 0-3.865-2.54-6.997-5.671-6.997zm-4.33 19.086C9.11 20.863 1.59 15.21 1.59 9.836c0-3.174 2.086-5.748 4.659-5.748 1.575-.025 3.05.955 3.898 2.593.173.293.505.359.743.146a.61.61 0 00.118-.146c1.408-2.657 4.295-3.402 6.448-1.665 1.318 1.063 2.111 2.877 2.109 4.82 0 5.436-7.519 11.059-8.987 12.09z" fill="#999"/></g><defs><clipPath id="clip0_57_1030"><path fill="#fff" transform="translate(.578 .715)" d="M0 0h20v24.678H0z"/></clipPath></defs></svg>