<svg width="20" height="21" fill="none" xmlns="http://www.w3.org/2000/svg"><g clip-path="url(#clip0_18_29)" fill="#1A467C"><path d="M8.808.267C3.95.267 0 4.22 0 9.075c0 4.857 3.951 8.808 8.808 8.808 4.856 0 8.807-3.951 8.807-8.808 0-4.856-3.95-8.808-8.807-8.808zm0 15.99c-3.96 0-7.182-3.222-7.182-7.182 0-3.96 3.222-7.182 7.182-7.182 3.96 0 7.181 3.222 7.181 7.182 0 3.96-3.222 7.181-7.181 7.181z"/><path d="M19.762 18.88L15.1 14.218a.813.813 0 10-1.15 1.15l4.662 4.661a.81.81 0 001.15 0 .812.812 0 000-1.15z"/></g><defs><clipPath id="clip0_18_29"><path fill="#fff" transform="translate(0 .267)" d="M0 0h20v20H0z"/></clipPath></defs></svg>