<svg width="15" height="15" fill="none" xmlns="http://www.w3.org/2000/svg"><g clip-path="url(#clip0_18_455)"><path d="M14.409 5.335a1.013 1.013 0 00-.617-.33l-3.72-.514L8.598.972a1.01 1.01 0 00-1.865 0L5.262 4.491l-3.721.514a1.013 1.013 0 00-.535 1.76l2.804 2.5-.576 3.923a1 1 0 00.464 1.006.997.997 0 001.104-.02l2.864-1.948 2.865 1.95a1.012 1.012 0 001.568-.986l-.576-3.925 2.803-2.5a1.013 1.013 0 00.083-1.43zM10.656 8.7a.5.5 0 00-.161.446l.6 4.2-3.146-2.139a.5.5 0 00-.562 0l-3.164 2.126.615-4.189a.5.5 0 00-.161-.444l-3-2.703 4.003-.553a.5.5 0 00.393-.302l1.6-3.791a.023.023 0 01.003.007L9.26 5.14a.5.5 0 00.393.302l4.008.577L10.656 8.7z" fill="#FFA800"/></g><defs><clipPath id="clip0_18_455"><path fill="#fff" transform="translate(.666 .351)" d="M0 0h14v14H0z"/></clipPath></defs></svg>