<svg width="15" height="15" fill="none" xmlns="http://www.w3.org/2000/svg"><g clip-path="url(#clip0_18_415)"><path d="M14.038 5.865a.743.743 0 00-.64-.51l-4.041-.368-1.597-3.74a.744.744 0 00-1.37 0l-1.597 3.74-4.042.367a.745.745 0 00-.423 1.302l3.055 2.679-.9 3.967a.744.744 0 001.107.805l3.485-2.084 3.484 2.084a.744.744 0 001.108-.805l-.9-3.967 3.054-2.679a.745.745 0 00.217-.79z" fill="#FFA800"/></g><defs><clipPath id="clip0_18_415"><path fill="#fff" transform="translate(.075 .495)" d="M0 0h14v14H0z"/></clipPath></defs></svg>