<svg width="26" height="26" fill="none" xmlns="http://www.w3.org/2000/svg"><g clip-path="url(#clip0_18_38)"><path d="M25.487 3.263c-.305-.374-.763-.58-1.288-.58-.286 0-.588.06-.9.18L2.139 10.94c-1.123.428-1.274 1.072-1.265 1.417.01.345.198.979 1.343 1.343l.02.006 4.39 1.256L9 21.752c.324.925 1.05 1.5 1.896 1.5.534 0 1.059-.223 1.518-.646l2.715-2.5 3.938 3.17.002.002.037.03a.961.961 0 00.01.008c.438.34.916.519 1.383.52.912 0 1.638-.676 1.85-1.72l3.467-17.121c.139-.688.022-1.303-.33-1.732zM8.095 14.725l8.469-4.326-5.274 5.603a.731.731 0 00-.177.326l-1.017 4.119-2.001-5.722zm3.327 6.803a1.39 1.39 0 01-.106.088l.943-3.821 1.716 1.382-2.553 2.351zM24.38 4.704l-3.467 17.121c-.034.164-.14.545-.414.545-.136 0-.306-.074-.48-.208l-4.462-3.593-.003-.001-2.655-2.139 7.626-8.102a.732.732 0 00-.867-1.155L7.116 13.58l-4.45-1.273 21.156-8.076c.18-.068.304-.082.377-.082.045 0 .124.005.154.041.039.048.088.21.027.514z" fill="#437FC8"/></g><defs><clipPath id="clip0_18_38"><path fill="#fff" transform="translate(.873 .78)" d="M0 0h25v25H0z"/></clipPath></defs></svg>