<svg width="28" height="28" fill="none" xmlns="http://www.w3.org/2000/svg"><path d="M14 28a14.004 14.004 0 01-10.705-4.976A14.011 14.011 0 010 14a13.91 13.91 0 014.1-9.9A13.908 13.908 0 0114 0a13.91 13.91 0 019.9 4.1A13.908 13.908 0 0128 14a14.01 14.01 0 01-4.947 10.68A14.004 14.004 0 0114 28zm0-26.25C7.245 1.75 1.75 7.245 1.75 14a12.259 12.259 0 004.33 9.345 12.253 12.253 0 0017.288-1.45A12.258 12.258 0 0026.25 14c0-6.755-5.495-12.25-12.25-12.25z" fill="#1A467C"/><path d="M14 14a5.256 5.256 0 01-5.25-5.25A5.256 5.256 0 0114 3.5a5.256 5.256 0 015.25 5.25A5.256 5.256 0 0114 14zm0-8.75c-1.93 0-3.5 1.57-3.5 3.5s1.57 3.5 3.5 3.5 3.5-1.57 3.5-3.5-1.57-3.5-3.5-3.5z" fill="#1A467C"/><path d="M22.488 24.887a.875.875 0 01-.85-1.088 7.914 7.914 0 00.237-1.924c0-4.281-3.48-7.813-7.76-7.874L14 14h-.115c-4.28.062-7.76 3.594-7.76 7.875 0 .651.08 1.298.237 1.924a.875.875 0 01-1.698.426 9.66 9.66 0 01-.289-2.35c0-2.547.985-4.948 2.774-6.761a9.567 9.567 0 016.715-2.863h.012L14 12.25h.136a9.567 9.567 0 016.715 2.864 9.568 9.568 0 012.774 6.761c0 .794-.097 1.585-.29 2.35a.875.875 0 01-.847.662z" fill="#1A467C"/></svg>