<svg width="26" height="25" fill="none" xmlns="http://www.w3.org/2000/svg"><path d="M24.291 8.824A8.76 8.76 0 0021.7 2.59 8.761 8.761 0 0015.468 0h-5.229C7.892 0 5.678.92 4.007 2.591a8.762 8.762 0 00-2.591 6.233v4.11c0 1.818.555 3.567 1.604 5.058a8.854 8.854 0 003.623 2.994v2.36c0 1.22.683 1.654 1.268 1.654.418 0 .836-.206 1.243-.613l2.63-2.63h3.684c2.348 0 4.56-.92 6.232-2.591a8.761 8.761 0 002.591-6.233v-4.11zm-8.823 11.468H11.48a.732.732 0 00-.518.214L8.12 23.351l-.012.011v-2.866a.732.732 0 00-.47-.683c-2.845-1.086-4.756-3.85-4.756-6.88v-4.11c0-1.956.768-3.802 2.162-5.196a7.306 7.306 0 015.196-2.162h5.228c1.957 0 3.803.768 5.197 2.162a7.305 7.305 0 012.162 5.197v4.11c0 4.057-3.3 7.358-7.358 7.358z" fill="#437FC8"/><path d="M14.801 11.98a.732.732 0 00-1.035 0l-.592.59-2.293-2.292.592-.591a.733.733 0 000-1.036L8.699 5.877a.732.732 0 00-1.035 0L5.722 7.82a2.697 2.697 0 000 3.81l6.102 6.102a2.676 2.676 0 001.905.786c.72 0 1.397-.28 1.905-.786l1.941-1.942a.733.733 0 000-1.036l-2.774-2.774zm-.203 4.715c-.231.23-.54.357-.87.357a1.22 1.22 0 01-.868-.357l-6.102-6.102a1.23 1.23 0 010-1.738L8.18 7.43l1.74 1.739-.591.591a.733.733 0 000 1.036l3.328 3.329a.733.733 0 001.036 0l.591-.592 1.738 1.738-1.423 1.424zM13.031 3.24a.732.732 0 100 1.465c1.676 0 3.252.653 4.438 1.838a6.234 6.234 0 011.838 4.437.732.732 0 001.465 0 7.69 7.69 0 00-2.267-5.473A7.69 7.69 0 0013.03 3.24z" fill="#437FC8"/><path d="M16.169 10.98a.733.733 0 001.465 0 4.608 4.608 0 00-4.603-4.602.732.732 0 100 1.465 3.141 3.141 0 013.138 3.137z" fill="#437FC8"/></svg>